<svg xmlns="http://www.w3.org/2000/svg" viewBox="0 0 1200 800">
      <defs>
        <linearGradient id="g" x1="0" y1="0" x2="1" y2="1">
          <stop offset="0" stop-color="#DADFD9"/><stop offset="1" stop-color="#ffffff"/>
        </linearGradient>
      </defs>
      <rect width="1200" height="800" fill="url(#g)"/>
      <rect x="70" y="110" width="1060" height="530" rx="14" fill="#f9f8f5"/>
      <rect x="105" y="165" width="360" height="360" rx="8" fill="#F2F1EC"/>
      <rect x="475" y="165" width="290" height="360" rx="8" fill="#F2F1EC"/>
      <rect x="775" y="165" width="380" height="360" rx="8" fill="#F2F1EC"/>
      <rect x="105" y="525" width="1050" height="55" rx="8" fill="#292723"/>
      <rect x="130" y="190" width="310" height="145" rx="5" fill="#dfe7e7"/>
      <rect x="500" y="190" width="240" height="145" rx="5" fill="#dfe7e7"/>
      <rect x="805" y="190" width="320" height="145" rx="5" fill="#dfe7e7"/>
      <circle cx="275" cy="445" r="10" fill="#66735F"/><circle cx="615" cy="445" r="10" fill="#66735F"/>
      <circle cx="960" cy="445" r="10" fill="#66735F"/>
      <rect x="510" y="570" width="220" height="12" rx="6" fill="#66735F"/>
      <text x="105" y="100" font-family="Arial, sans-serif" font-size="26" letter-spacing="7" fill="#292723">OLIVE</text>
    </svg>